<?xml version="1.0" encoding="utf-8"?>
<!-- Generator: Adobe Illustrator 26.2.1, SVG Export Plug-In . SVG Version: 6.00 Build 0)  -->
<svg version="1.1" id="Calque_1" xmlns="http://www.w3.org/2000/svg" xmlns:xlink="http://www.w3.org/1999/xlink" x="0px" y="0px"
	 viewBox="0 0 48 48" style="enable-background:new 0 0 48 48;" xml:space="preserve">
<style type="text/css">
	.st0{fill:#B388FF;}
	.st1{fill:#170B40;}
</style>
<path class="st0" d="M0.1,5.4c0-2.9,2.4-5.3,5.3-5.3h37.2c2.9,0,5.3,2.4,5.3,5.3v37.2c0,2.9-2.4,5.3-5.3,5.3H5.4
	c-2.9,0-5.3-2.4-5.3-5.3V5.4z"/>
<path class="st1" d="M4.1,4.1V44h39.8V4.1H4.1z"/>
<path class="st0" d="M20.3,29.3h-6l-1.2,3.8H9.4l6.2-18.3h3.2l6.3,18.3h-3.7L20.3,29.3z M15.1,26.2h4.2l-2.1-6.9L15.1,26.2z
	 M32.2,33.3c-1,0-1.8-0.2-2.6-0.5c-0.8-0.3-1.4-0.8-1.9-1.4c-0.5-0.6-0.9-1.3-1.2-2.1c-0.3-0.8-0.4-1.7-0.4-2.6v-0.5
	c0-1,0.1-2,0.4-2.8c0.3-0.9,0.7-1.6,1.2-2.2c0.5-0.6,1.1-1.1,1.8-1.5c0.7-0.3,1.5-0.5,2.4-0.5c0.9,0,1.7,0.2,2.4,0.5
	c0.7,0.3,1.3,0.8,1.7,1.4c0.5,0.6,0.8,1.3,1,2.1c0.2,0.8,0.4,1.7,0.4,2.7v1.5h-7.9c0.1,0.4,0.2,0.8,0.3,1.2c0.2,0.4,0.4,0.7,0.6,0.9
	s0.6,0.5,0.9,0.6c0.3,0.1,0.7,0.2,1.2,0.2c0.6,0,1.2-0.1,1.7-0.4c0.5-0.2,1-0.6,1.3-1.2l1.6,2c-0.2,0.3-0.4,0.6-0.7,0.9
	c-0.3,0.3-0.7,0.6-1.1,0.8c-0.4,0.2-0.9,0.4-1.4,0.6C33.3,33.3,32.8,33.3,32.2,33.3z M31.8,22.2c-0.4,0-0.7,0.1-0.9,0.2
	c-0.3,0.1-0.5,0.3-0.7,0.6c-0.2,0.2-0.4,0.5-0.5,0.9c-0.1,0.3-0.2,0.7-0.3,1.1H34v-0.3c0-0.4-0.1-0.7-0.1-1
	c-0.1-0.3-0.2-0.6-0.4-0.8c-0.2-0.2-0.4-0.4-0.7-0.5C32.5,22.2,32.2,22.2,31.8,22.2z"/>
</svg>
