<?xml version="1.0" encoding="utf-8"?>
<!-- Generator: Adobe Illustrator 26.2.1, SVG Export Plug-In . SVG Version: 6.00 Build 0)  -->
<svg version="1.1" id="Calque_1" xmlns="http://www.w3.org/2000/svg" xmlns:xlink="http://www.w3.org/1999/xlink" x="0px" y="0px"
	 viewBox="0 0 48 48" style="enable-background:new 0 0 48 48;" xml:space="preserve">
<style type="text/css">
	.st0{fill:#E040FB;}
	.st1{fill:#020F16;}
</style>
<path class="st0" d="M0.1,5.6c0-2.9,2.4-5.3,5.3-5.3h37.1c2.9,0,5.3,2.4,5.3,5.3v37.1c0,2.9-2.4,5.3-5.3,5.3H5.4
	c-2.9,0-5.3-2.4-5.3-5.3V5.6z"/>
<path class="st1" d="M4.1,4.3v39.8h39.8V4.3H4.1z M20,17.8h-2.7v5.9H20c0.7,0,1.3-0.2,1.7-0.7c0.4-0.5,0.6-1.2,0.6-2.1
	c0-0.9-0.2-1.7-0.6-2.2C21.3,18.1,20.7,17.8,20,17.8z M24.5,25.2c-1.1,1.1-2.6,1.6-4.6,1.6h-2.5v6.6h-4V14.6H20
	c1.9,0,3.4,0.6,4.5,1.7s1.7,2.7,1.7,4.5C26.1,22.7,25.6,24.2,24.5,25.2z M36.2,23L35,22.9c-1.1,0-1.7,0.4-2,1.3v9.3h-3.7V19.4h3.4
	l0.1,1.5c0.5-1.2,1.3-1.7,2.4-1.7c0.4,0,0.8,0,1.1,0.1L36.2,23z"/>
</svg>
