<svg xmlns="http://www.w3.org/2000/svg" xmlns:xlink="http://www.w3.org/1999/xlink" viewBox="0 0 51 65" fill="#fff" fill-rule="evenodd" stroke="#000" stroke-linecap="round" stroke-linejoin="round"><style><![CDATA[.B{stroke:none}.C{text-anchor:start}.D{font-weight:bold}]]></style><use xlink:href="#C" x=".5" y=".5"/><defs><filter id="A" x="-6%" y="-4.6875%" width="116%" height="112.5%"><feGaussianBlur in="SourceAlpha" stdDeviation="1"/><feOffset dx="2" dy="2" result="B"/><feFlood flood-color="#000" flood-opacity=".2"/><feComposite in2="B" operator="in" result="C"/><feMerge><feMergeNode in="C"/><feMergeNode in="SourceGraphic"/></feMerge></filter><filter id="B" x="-27.5%" y="-32.5%" width="160%" height="160%"><feGaussianBlur in="SourceAlpha" stdDeviation="2"/><feOffset dx="1" dy="-1" result="B"/><feFlood flood-color="#000" flood-opacity=".2"/><feComposite in2="B" operator="in" result="C"/><feMerge><feMergeNode in="C"/><feMergeNode in="SourceGraphic"/></feMerge></filter></defs><symbol id="C" overflow="visible"><path d="M50 20L30 0H5a4.99 4.99 0 0 0-5 5v54a4.99 4.99 0 0 0 5 5h40a4.99 4.99 0 0 0 5-5z" fill="#3f51b5" filter="url(#A)" class="B"/><defs/><g transform="matrix(-1 0 0 -1 50 20)"><path d="M20 20L0 0h15a4.99 4.99 0 0 1 5 5z" fill="#9fa8da" filter="url(#B)" class="B"/><defs/></g><g transform="matrix(.866025 -.5 .5 .866025 13.826544 22.034032)"><path d="M1.923 23.127c-.423-.234-.721-.668-.754-1.182L.006 3.407A3.21 3.21 0 0 1 3.207 0a3.21 3.21 0 0 1 3.201 3.407L5.246 21.946c-.033.514-.332.947-.754 1.182H1.923z" class="B"/></g><g transform="matrix(.866025 -.5 .5 .866025 22.56758 35.570471)"><path d="M.367 5.852L0 0h4.811l-.367 5.852c-.033.514-.332.947-.754 1.182H1.121C.699 6.8.4 6.366.367 5.852z" class="B"/></g><g transform="matrix(.866025 -.5 .5 .866025 24.643101 40.206796)"><path d="M0 3.321c.227 3.5 1.781 5.566 2.564 6.559a.45.45 0 0 0 .726.002c.784-.987 2.562-4.377 2.562-6.561C5.852 1.487 4.542 0 2.926 0S0 1.487 0 3.321z" class="B"/></g></symbol></svg>