<?xml version="1.0" encoding="utf-8"?>
<!-- Generator: Adobe Illustrator 26.2.1, SVG Export Plug-In . SVG Version: 6.00 Build 0)  -->
<svg version="1.1" id="Filled" xmlns="http://www.w3.org/2000/svg" xmlns:xlink="http://www.w3.org/1999/xlink" x="0px" y="0px"
	 viewBox="0 0 4.2 3.8" style="enable-background:new 0 0 4.2 3.8;" xml:space="preserve">
<style type="text/css">
	.st0{fill:#FFFFFF;}
</style>
<g>
	<path class="st0" d="M4.2,0.8L2.7,2.2c-0.4,0.4-0.9,0.4-1.2,0L0,0.8c0,0,0,0.1,0,0.1v2.1c0,0.5,0.4,0.9,0.9,0.9h2.4
		c0.5,0,0.9-0.4,0.9-0.9V0.8C4.2,0.8,4.2,0.8,4.2,0.8z"/>
	<path class="st0" d="M2.4,2L4,0.4C3.8,0.2,3.5,0,3.3,0H0.9C0.6,0,0.3,0.2,0.1,0.4L1.7,2C1.9,2.2,2.2,2.2,2.4,2z"/>
</g>
</svg>
