<?xml version="1.0" encoding="utf-8"?>
<!-- Generator: Adobe Illustrator 26.2.1, SVG Export Plug-In . SVG Version: 6.00 Build 0)  -->
<svg version="1.1" id="Layer_1" xmlns="http://www.w3.org/2000/svg" xmlns:xlink="http://www.w3.org/1999/xlink" x="0px" y="0px"
	 viewBox="0 0 512 512" style="enable-background:new 0 0 512 512;" xml:space="preserve">
<style type="text/css">
	.st0{fill:#FFFFFF;}
</style>
<path class="st0" d="M256,192c-47.1,0-85.3,38.2-85.4,85.3c0,22.6,9,44.4,25,60.4l48.8,47.7c6.4,6.2,16.7,6.2,23.1,0l49.1-47.9
	c33.2-33.4,33.1-87.4-0.3-120.7C300.3,200.9,278.6,192,256,192z M256,298.5c-11.8,0-21.3-9.6-21.3-21.3s9.6-21.3,21.3-21.3
	c11.8,0,21.3,9.6,21.3,21.3C277.3,288.9,267.8,298.5,256,298.5L256,298.5z M465.1,119L315.7,18.2c-36-24.5-83.4-24.5-119.5,0
	L46.9,119C17.6,138.9,0,172,0,207.4v197.9C0.1,464.2,47.8,511.9,106.7,512h298.7c58.9-0.1,106.6-47.8,106.7-106.7V207.4
	C512,172,494.4,138.9,465.1,119L465.1,119z M346.5,367.9L297.4,416c-23.1,22.3-59.7,22.3-82.8,0l-49.1-47.9
	c-50-49.9-50.1-131-0.2-181s131-50.1,181-0.2l0,0C396.3,236.9,396.3,317.8,346.5,367.9z"/>
</svg>
