<?xml version="1.0" encoding="UTF-8"?><svg id="a" xmlns="http://www.w3.org/2000/svg" viewBox="0 0 3.74 3.74"><defs><style>.b{fill:#fff;}</style></defs><path class="b" d="M1.87,1.41c-.34,0-.62,.28-.62,.62,0,.17,.07,.32,.18,.44l.36,.35s.12,.05,.17,0l.36-.35c.24-.24,.24-.64,0-.88-.12-.12-.28-.18-.44-.18Zm0,.78c-.09,0-.16-.07-.16-.16s.07-.16,.16-.16,.16,.07,.16,.16-.07,.16-.16,.16h0ZM3.4,.87L2.31,.13C2.05-.04,1.7-.04,1.43,.13L.34,.87c-.21,.15-.34,.39-.34,.65v1.45c0,.43,.35,.78,.78,.78H2.96c.43,0,.78-.35,.78-.78V1.52c0-.26-.13-.5-.34-.65h0Zm-.87,1.82l-.36,.35c-.17,.16-.44,.16-.61,0l-.36-.35c-.37-.36-.37-.96,0-1.32,.36-.37,.96-.37,1.32,0h0c.37,.37,.37,.96,0,1.32Z"/></svg>