<?xml version="1.0" encoding="UTF-8"?><svg id="a" xmlns="http://www.w3.org/2000/svg" viewBox="0 0 3.74 3.74"><defs><style>.b{fill:#fff;}</style></defs><path class="b" d="M1.15,2.05c-.36,0-.65-.29-.65-.65s.29-.65,.65-.65,.65,.29,.65,.65c0,.36-.29,.65-.65,.65Zm.93,1.58H.21c-.08,0-.14-.06-.14-.14v-.07c0-.59,.48-1.08,1.08-1.08s1.08,.48,1.08,1.08v.07c0,.08-.06,.14-.14,.14Zm.5-2.15c-.36,0-.65-.29-.65-.65s.29-.65,.65-.65,.65,.29,.65,.65-.29,.65-.65,.65Zm-.2,.29c-.27,.04-.51,.18-.67,.41,.32,.15,.57,.41,.7,.74h.96c.08,0,.14-.06,.14-.14h0c0-.56-.45-1.01-1.01-1.01-.04,0-.09,0-.13,0Z"/></svg>