<?xml version="1.0" encoding="utf-8"?>
<!-- Generator: Adobe Illustrator 26.2.1, SVG Export Plug-In . SVG Version: 6.00 Build 0)  -->
<svg version="1.1" id="Layer_1" xmlns="http://www.w3.org/2000/svg" xmlns:xlink="http://www.w3.org/1999/xlink" x="0px" y="0px"
	 viewBox="0 0 512 512" style="enable-background:new 0 0 512 512;" xml:space="preserve">
<style type="text/css">
	.st0{fill:#FFFFFF;}
</style>
<path class="st0" d="M160,277.3c-53,0-96-43-96-96s43-96,96-96s96,43,96,96C255.9,234.3,213,277.3,160,277.3z M298.7,512H21.3
	C9.6,512,0,502.4,0,490.7V480c0-88.4,71.6-160,160-160s160,71.6,160,160v10.7C320,502.4,310.4,512,298.7,512z M373.3,192
	c-53,0-96-43-96-96s43-96,96-96s96,43,96,96C469.3,149,426.3,191.9,373.3,192z M343,235.1c-40.2,5.4-76.3,27.3-99.6,60.4
	c47.8,21.7,85.4,61.1,104.8,109.8h142.4c11.8,0,21.3-9.6,21.3-21.3v-0.8c-0.1-82.6-67.1-149.4-149.7-149.3
	C355.9,233.8,349.4,234.3,343,235.1z"/>
</svg>
